<svg width="193" height="193" viewBox="0 0 193 193" fill="none" xmlns="http://www.w3.org/2000/svg">
<rect width="193" height="193" fill="#1C341E"/>
<path d="M23.9043 119.346C23.9043 119.053 24.1484 118.662 24.6367 118.174C25.125 117.686 25.5156 117.441 25.8086 117.441C27.0781 120.273 28.4941 123.252 30.0566 126.377C31.6191 129.502 33.4258 132.383 35.4766 135.02C37.625 137.656 40.0664 139.805 42.8008 141.465C45.5352 143.223 48.6602 144.102 52.1758 144.102C55.3008 144.102 58.0352 143.271 60.3789 141.611C62.7227 139.951 64.334 137.51 65.2129 134.287C65.7988 126.279 65.75 118.32 65.0664 110.41C64.3828 102.5 63.5039 94.6387 62.4297 86.8262C61.3555 78.916 60.2812 71.0547 59.207 63.2422C58.1328 55.332 57.5469 47.373 57.4492 39.3652C57.4492 38.877 57.4004 38.291 57.3027 37.6074C57.3027 36.8262 57.4004 36.0937 57.5957 35.4102C57.791 34.7266 58.084 34.1406 58.4746 33.6523C58.8652 33.1641 59.5488 32.9199 60.5254 32.9199C61.5996 32.9199 62.5273 33.6035 63.3086 34.9707C65.75 49.2285 67.9473 63.7305 69.9004 78.4766C71.8535 93.2227 72.8301 107.822 72.8301 122.275C72.8301 126.182 72.5371 129.795 71.9512 133.115C71.4629 136.436 70.4375 139.268 68.875 141.611C67.3125 144.053 65.1641 145.957 62.4297 147.324C59.6953 148.789 56.1797 149.521 51.8828 149.521C48.1719 149.521 44.6074 148.643 41.1895 146.885C37.8691 145.225 34.8906 142.93 32.2539 140C29.7148 137.168 27.6641 133.945 26.1016 130.332C24.6367 126.719 23.9043 123.057 23.9043 119.346ZM144.461 113.779C141.629 116.221 138.65 118.906 135.525 121.836C132.498 124.668 129.227 127.305 125.711 129.746C122.293 132.188 118.729 134.238 115.018 135.898C111.307 137.461 107.4 138.242 103.299 138.242C101.15 138.242 98.8066 137.998 96.2676 137.51C93.7285 136.924 91.3359 135.996 89.0898 134.727C86.9414 133.457 85.0371 131.895 83.377 130.039C81.8145 128.086 80.9844 125.791 80.8867 123.154C80.4961 119.443 80.8867 114.902 82.0586 109.531C83.3281 104.062 85.1836 98.3496 87.625 92.3926C90.0664 86.3379 92.9473 80.3809 96.2676 74.5215C99.6855 68.5645 103.396 63.1934 107.4 58.4082C111.404 53.5254 115.604 49.6191 119.998 46.6895C124.49 43.7598 129.031 42.2949 133.621 42.2949C134.305 42.2949 135.037 42.3926 135.818 42.5879C136.697 42.6855 137.479 42.8809 138.162 43.1738C138.943 43.4668 139.578 43.9551 140.066 44.6387C140.555 45.2246 140.799 46.0547 140.799 47.1289C140.799 47.6172 139.676 48.252 137.43 49.0332C135.281 49.8145 132.791 50.6934 129.959 51.6699C127.127 52.5488 124.393 53.5254 121.756 54.5996C119.119 55.5762 117.361 56.5527 116.482 57.5293C112.967 62.0215 109.598 66.6113 106.375 71.2988C103.25 75.9863 100.418 80.8203 97.8789 85.8008C95.4375 90.7812 93.3379 95.9082 91.5801 101.182C89.9199 106.455 88.7969 111.875 88.2109 117.441C88.2109 120.176 88.748 122.324 89.8223 123.887C90.8965 125.352 92.2637 126.475 93.9238 127.256C95.6816 127.939 97.6836 128.379 99.9297 128.574C102.176 128.672 104.422 128.721 106.668 128.721C110.574 128.33 114.48 127.012 118.387 124.766C122.293 122.422 125.955 119.541 129.373 116.123C132.889 112.705 136.062 108.848 138.895 104.551C141.727 100.156 144.119 95.7129 146.072 91.2207H123.221C123.221 90.0488 123.904 88.9746 125.271 87.998C126.736 87.0215 128.543 86.1426 130.691 85.3613C132.938 84.4824 135.428 83.7012 138.162 83.0176C140.896 82.334 143.582 81.748 146.219 81.2598C148.855 80.7715 151.297 80.4297 153.543 80.2344C155.789 80.0391 157.547 79.9414 158.816 79.9414H160.428C161.111 79.9414 161.746 80.0391 162.332 80.2344C162.918 80.4297 163.309 80.8203 163.504 81.4062C163.797 81.8945 163.699 82.6758 163.211 83.75C163.113 83.9453 162.771 84.2383 162.186 84.6289C161.697 85.0195 161.111 85.4102 160.428 85.8008C159.842 86.1914 159.256 86.582 158.67 86.9727C158.084 87.2656 157.693 87.4609 157.498 87.5586C155.447 91.6602 153.982 96.4941 153.104 102.061C152.225 107.627 151.736 113.389 151.639 119.346C151.541 125.303 151.736 131.26 152.225 137.217C152.713 143.076 153.299 148.35 153.982 153.037L148.27 156.846C147.098 155.674 146.121 154.014 145.34 151.865C144.656 149.717 144.168 147.324 143.875 144.688C143.582 142.051 143.436 139.268 143.436 136.338C143.436 133.408 143.484 130.576 143.582 127.842C143.777 125.01 143.924 122.373 144.021 119.932C144.217 117.49 144.363 115.439 144.461 113.779Z" fill="white"/>
</svg>
