<svg width="1440" height="438" viewBox="0 0 1440 438" fill="none" xmlns="http://www.w3.org/2000/svg">
<rect y="100" width="1440" height="338" fill="#2D3A2C"/>
<path d="M102.544 101.398C102.27 90.7145 97.8596 78.6378 92.5197 69.4415C89.3938 64.0579 91.6605 68.5444 93.1613 71.2458C96.988 78.134 100.77 85.8417 102.865 93.4594C103.922 97.3034 106.153 102.466 106.153 106.451" stroke="#2D3A2C" stroke-width="3" stroke-linecap="round"/>
<path d="M105.611 104.942C104.677 104.826 106.529 91.9698 106.596 90.8635C106.899 85.8131 106.294 70.6801 106.997 75.6904C108.62 87.2571 105.283 98.6979 105.283 110.195" stroke="#2D3A2C" stroke-width="3" stroke-linecap="round"/>
<path d="M113.818 107.568C113.818 94.5942 122.059 82.9777 129.939 73.3194C133.96 68.3914 138.5 63.5194 144.383 60.8454C145.052 60.541 146.047 60.043 146.827 60.043C147.512 60.043 146.002 61.1496 145.495 61.6113C131.062 74.7561 116.396 90.0343 111.52 109.538" stroke="#2D3A2C" stroke-width="3" stroke-linecap="round"/>
<path d="M91.1674 104.942C91.1674 101.274 91.5972 97.2912 90.5109 93.7447C90.2068 92.7521 89.7097 91.6952 88.8878 91.0274C88.7962 90.953 87.7282 90.2791 88.286 90.7174C95.8011 96.6221 98.7175 106.647 98.7175 115.775" stroke="#2D3A2C" stroke-width="3" stroke-linecap="round"/>
<path d="M53.7456 104.613C53.7456 90.7004 49.2845 75.7901 42.3293 63.7994C40.4063 60.4842 37.6951 56.4347 34.1957 54.5351C32.2025 53.4531 36.9837 57.1012 37.2412 57.3253C45.6423 64.6353 51.8293 75.4841 55.9705 85.6836C58.4002 91.668 59.139 97.8625 60.9674 103.957" stroke="#2D3A2C" stroke-width="3" stroke-linecap="round"/>
<path d="M49.8062 102.315C49.8062 98.5632 49.6641 94.9985 48.4749 91.3914C48.3013 90.8646 45.2409 83.54 43.788 84.3702C43.4025 84.5905 44.5338 88.0586 44.554 88.1452C45.2156 90.9847 45.5651 93.8398 45.867 96.7348C46.198 99.9078 46.1953 103.07 46.1953 106.254" stroke="#2D3A2C" stroke-width="3" stroke-linecap="round"/>
<path d="M60.6392 99.6898C60.6392 94.2585 63.4049 88.5418 65.4902 83.6414C66.0244 82.386 66.6322 80.3109 67.6422 79.301C68.5478 78.3954 66.8493 81.7416 66.3291 82.9119C63.0285 90.3382 59.4808 97.6562 56.4447 105.197C55.5559 107.405 54.7305 109.756 54.7305 112.164" stroke="#2D3A2C" stroke-width="3" stroke-linecap="round"/>
<path d="M17.3082 101.988C17.3082 98.8919 16.4613 96.5019 15.4845 93.5987C15.1768 92.6841 13.9395 89.4408 15.5575 91.775C19.6094 97.6203 22.8939 103.686 23.5452 110.851" stroke="#2D3A2C" stroke-width="3" stroke-linecap="round"/>
<path d="M191.616 105.927C191.616 76.905 186.202 47.9017 175.276 20.9437C173.53 16.6361 171.486 12.4476 169.312 8.34199C168.423 6.66259 167.042 4.83125 166.431 2.99859C164.67 -2.28337 171.691 12.8272 173.908 17.9346C178.497 28.5083 182.028 39.483 185.306 50.5238C188.34 60.7436 191.317 71.1457 193.348 81.6177C195.008 90.1723 195.797 98.9391 196.139 107.642C196.218 109.663 196.832 113.087 195.555 114.79" stroke="#2D3A2C" stroke-width="3" stroke-linecap="round"/>
<path d="M195.555 107.24C195.555 89.5734 194.853 71.7994 200.114 54.7001C201.01 51.7909 198.622 60.6054 197.707 63.5085C195.423 70.7582 192.644 77.8388 190.394 85.1009C188.133 92.4025 186.896 99.8577 185.051 107.24" stroke="#2D3A2C" stroke-width="3" stroke-linecap="round"/>
<path d="M196.995 102.098C197.104 99.5878 197.827 97.1231 198.689 94.779C202.627 84.0793 209.774 74.5963 217.844 66.6565C223.097 61.4886 229.638 55.8284 237.022 54.0747C238.139 53.8095 242.623 52.8229 240.026 54.9105C236.013 58.1367 231.749 61.0402 227.715 64.2395C218.655 71.4253 210.442 79.8005 203.049 88.6802C197.492 95.3548 192.44 102.529 188.321 110.184C187.54 111.636 186.747 113.084 186.424 114.702" stroke="#2D3A2C" stroke-width="3" stroke-linecap="round"/>
<path d="M279.617 106.939C280.641 101.82 275.849 94.5807 273.886 90.0005C273.285 88.5968 271.803 86.4582 271.849 84.8427C271.889 83.4169 276.834 87.6065 276.879 87.6445C283.03 92.8343 292.225 103.215 292.225 112.096" stroke="#2D3A2C" stroke-width="3" stroke-linecap="round"/>
<path d="M304.833 107.511C304.833 81.3082 304.361 2.70396 304.865 28.9021C304.985 35.1184 306.144 109.74 305.12 109.74C303.003 109.74 310.931 96.4754 310.978 96.3996C314.894 90.1776 318.662 83.8597 322.79 77.7741C323.564 76.634 326.518 70.8213 328.203 70.515C329.329 70.3102 328.027 72.842 327.566 73.8898C325.399 78.8152 321.782 83.2882 318.97 87.8669C317.982 89.4742 312.731 95.5832 315.149 97.1956" stroke="#2D3A2C" stroke-width="3" stroke-linecap="round"/>
<path d="M305.98 97.7681C305.906 94.8212 305.601 91.8928 304.802 89.0444C304.609 88.3577 303.114 83.0907 303.114 86.4336C303.114 97.1167 303.649 107.856 305.407 118.399" stroke="#2D3A2C" stroke-width="3" stroke-linecap="round"/>
<path d="M238.928 102.927C238.928 98.572 238.033 94.7643 236.89 90.5732C236.579 89.433 235.703 87.1185 236.063 85.8611C236.18 85.4491 239.675 90.0386 239.692 90.0638C243.178 95.1028 248.671 102.71 248.671 109.231" stroke="#2D3A2C" stroke-width="3" stroke-linecap="round"/>
<path d="M248.097 104.646C248.097 99.4256 247.108 94.7464 250.963 90.8916" stroke="#2D3A2C" stroke-width="3" stroke-linecap="round"/>
<path d="M403.405 115.535C403.405 97.1668 402.17 79.3642 394.013 62.5237C393.272 60.9938 391.37 56.4619 391.37 58.1619C391.37 61.3553 394.178 65.1913 395.254 68.0954C400.083 81.1263 403.843 94.81 407.608 108.18C408.877 112.69 410.855 118.217 410.855 122.985" stroke="#2D3A2C" stroke-width="3" stroke-linecap="round"/>
<path d="M410.855 109.804C410.855 104.052 410.855 98.2996 410.855 92.5475C410.855 90.2663 410.386 87.3339 411.11 85.1609C413.757 77.2214 409.17 101.812 407.417 109.995C405.876 117.187 402.832 125.293 402.832 132.728" stroke="#2D3A2C" stroke-width="3" stroke-linecap="round"/>
<path d="M414.867 105.219C415.521 91.9338 423.911 78.1826 433.365 69.1141C435.889 66.6937 439.814 64.9307 436.581 69.8782C427.533 83.7225 415.572 95.5649 405.921 109.008C403.41 112.504 402.279 116.65 399.967 120.119" stroke="#2D3A2C" stroke-width="3" stroke-linecap="round"/>
<path d="M386.786 102.926C388.732 102.683 386.153 93.8762 385.863 92.9289C384.968 90.0127 383.828 87.0617 382.329 84.3962C382.176 84.1242 381.131 82.3393 382.169 83.8231C388.465 92.8166 393.663 102.072 393.663 113.242" stroke="#2D3A2C" stroke-width="3" stroke-linecap="round"/>
<path d="M468.738 104.073C468.738 102.192 468.926 100.2 468.61 98.3418C468.512 97.7646 466.58 92.9576 468.578 94.5212C475.771 100.15 477.918 110.388 484.211 116.681" stroke="#2D3A2C" stroke-width="3" stroke-linecap="round"/>
<path d="M477.907 104.073C477.907 93.9265 478.741 63.551 477.62 73.6353C476.134 87.0107 476.188 100.38 476.188 113.815" stroke="#2D3A2C" stroke-width="3" stroke-linecap="round"/>
<path d="M576.479 107.511C576.479 87.4823 583.276 69.4341 592.59 51.9214C592.908 51.3217 595.491 45.8721 596.665 45.8721C597.001 45.8721 592.942 52.8425 592.844 53.0039C584.457 66.8787 571.895 80.8567 571.895 97.7687" stroke="#2D3A2C" stroke-width="3" stroke-linecap="round"/>
<path d="M573.967 103.46C573.617 99.6026 572.614 95.7574 571.438 92.0862C568.879 84.1024 565.718 76.2496 562.162 68.6602C560.13 64.3238 557.923 60.2081 554.86 56.5255C554.767 56.4131 550.77 51.6378 550.315 52.0418C550.042 52.2843 554.386 57.5333 554.593 57.8007C562.845 68.4728 567.9 81.4668 572.569 94.0195C574.441 99.0538 577.299 105.356 577.299 110.864" stroke="#2D3A2C" stroke-width="3" stroke-linecap="round"/>
<path d="M569.895 100.869C569.133 95.9159 563.978 90.9519 560.722 87.4998C559.842 86.5665 553.603 81.2548 557.185 85.2786C562.709 91.4856 567.852 98.6218 571.582 106.051C573.722 110.315 574.545 114.553 575.818 119.009" stroke="#2D3A2C" stroke-width="3" stroke-linecap="round"/>
<path d="M580.261 104.941C580.431 100.162 584.304 95.4723 587.295 91.9834" stroke="#2D3A2C" stroke-width="3" stroke-linecap="round"/>
<path d="M715.924 116.093C710.137 89.5675 697.727 63.4865 680.98 42.1197C677.781 38.0388 673.87 33.5068 669.486 30.5837C665.635 28.0167 676.667 36.4969 679.674 40.0146C693.433 56.1093 701.414 75.972 707.42 96.0522C709.343 102.483 711.224 108.918 712.893 115.419C713.26 116.848 713.616 117.935 714.409 119.124" stroke="#2D3A2C" stroke-width="3" stroke-linecap="round"/>
<path d="M714.408 103.21C714.408 91.5052 714.408 79.8009 714.408 68.0966C714.408 62.0336 715.257 43.9316 714.24 49.9086C711.755 64.5064 710.753 79.5191 708.514 94.1997C707.119 103.352 705.314 112.858 705.314 122.155" stroke="#2D3A2C" stroke-width="3" stroke-linecap="round"/>
<path d="M708.346 110.031C708.346 95.3763 722.241 80.7341 731.334 70.7078C732.041 69.928 749.773 52.3081 750.616 53.3618C751.961 55.0425 746.506 63.8582 745.985 64.8135C738.074 79.3165 728.14 92.6883 718.871 106.326C712.312 115.977 706.467 126.111 700.01 135.797" stroke="#2D3A2C" stroke-width="3" stroke-linecap="round"/>
<path d="M708.346 101.694C704.468 96.0718 699.76 92.2179 692.936 90.7896C689.508 90.0721 686.117 89.1147 689.863 92.3053C694.597 96.3381 699.063 100.509 703.63 104.725C707.992 108.752 710.595 113.918 714.408 118.366" stroke="#2D3A2C" stroke-width="3" stroke-linecap="round"/>
<path d="M711.624 103.714C720.205 98.3112 728.483 91.4452 738.614 89.2195C740.059 88.902 741.477 88.8398 742.947 88.8398C743.837 88.8398 742.292 89.1101 742.109 89.1748C734.159 91.988 726.243 95.2059 719.24 99.973C716.708 101.697 714.146 103.951 712.428 106.528" stroke="#2D3A2C" stroke-width="3" stroke-linecap="round"/>
<path d="M658.023 107.641C658.023 101.004 654.731 95.6408 650.512 90.634C648.211 87.9034 645.471 85.2496 642.196 83.7131C641.819 83.5364 638.759 82.6392 640.855 83.123C643.12 83.6457 644.68 85.3332 646.247 86.9321C649.212 89.9581 652.4 92.7722 654.804 96.2941C656.878 99.333 658.575 103.089 659.471 106.675" stroke="#2D3A2C" stroke-width="3" stroke-linecap="round"/>
<path d="M659.471 106.675C659.471 103.796 659.471 100.917 659.471 98.0376C659.471 96.3673 659.4 94.6599 659.578 92.9945C659.663 92.2006 661.021 90.6875 660.222 90.6875C658.706 90.6875 655.991 97.646 655.581 98.5741C653.227 103.903 651.604 109.219 650.297 114.884" stroke="#2D3A2C" stroke-width="3" stroke-linecap="round"/>
<path d="M1335.92 108.327C1335.92 103.472 1335.82 98.5903 1336.25 93.7489C1337.51 79.7629 1342.97 67.4652 1352.1 56.8343C1354.07 54.5434 1358.71 48.2053 1362.15 47.6954C1362.71 47.6129 1362.24 47.9852 1362.13 48.1096C1360.42 49.92 1358.94 51.9719 1357.35 53.88C1342.6 71.5841 1323 89.6571 1323 114.291" stroke="#2D3A2C" stroke-width="3" stroke-linecap="round"/>
<path d="M1324.49 106.836C1324.49 98.5797 1319.4 91.5748 1314.39 85.3826C1312.68 83.2769 1306.33 78.1451 1308.42 79.8606C1320.37 89.6333 1322.2 104.431 1324 118.763" stroke="#2D3A2C" stroke-width="3" stroke-linecap="round"/>
<path d="M1325.98 101.37C1325.98 85.1884 1326.86 68.7623 1325.87 52.6106C1325.71 49.988 1325.01 47.9737 1323.75 45.7357C1323.48 45.2537 1322.13 44.1775 1322.73 45.432C1328.41 57.4387 1329.85 71.0437 1329.96 84.2516C1330.02 92.4517 1330.46 100.627 1330.46 108.825" stroke="#2D3A2C" stroke-width="3" stroke-linecap="round"/>
<path d="M1342.38 105.344C1342.5 104.171 1343.4 103.094 1344.04 102.169C1346.52 98.5828 1349.42 95.3495 1352.49 92.2573C1354.36 90.3684 1356.22 88.3352 1358.7 87.2599C1358.82 87.2067 1360.72 86.1583 1360.72 86.7354C1360.72 87.707 1358.26 89.3245 1357.73 89.7725C1354.29 92.7025 1350.82 95.6437 1347.16 98.3039C1343.62 100.881 1338.46 103.253 1336.42 107.332" stroke="#2D3A2C" stroke-width="3" stroke-linecap="round"/>
<path d="M1408.48 105.345C1408.28 99.1943 1404.41 92.5057 1400.06 88.282C1397.7 85.9885 1395.85 83.8977 1399.59 87.288C1406.48 93.5275 1409.7 102.965 1411.46 111.806" stroke="#2D3A2C" stroke-width="3" stroke-linecap="round"/>
<path d="M1411.46 104.351C1411.46 97.379 1413.24 91.0398 1415.41 84.5268C1416.06 82.5929 1417.75 82.5074 1418.92 81.2689C1419.47 80.6819 1420.8 80.4115 1420.69 79.6123C1420.61 79.0494 1419.59 80.0312 1419.19 80.4406C1417.06 82.6548 1415.68 85.5888 1414.17 88.2266C1410.45 94.7087 1406 102.098 1406 109.818" stroke="#2D3A2C" stroke-width="3" stroke-linecap="round"/>
<path d="M1407.99 102.859V105.841" stroke="#2D3A2C" stroke-width="3" stroke-linecap="round"/>
<path d="M1273.8 107.333C1273.8 110.799 1273.62 100.314 1272.59 97.0069C1271.39 93.1881 1269.15 87.8626 1265.35 85.9629" stroke="#2D3A2C" stroke-width="3" stroke-linecap="round"/>
<path d="M1275.79 102.364C1275.79 98.1712 1275.82 93.9927 1276.4 89.8288C1277.3 83.3047 1279.86 78.0818 1283.24 72.5449" stroke="#2D3A2C" stroke-width="3" stroke-linecap="round"/>
<path d="M1210.19 101.866C1210.19 93.0021 1204.18 83.5882 1200.03 76.1614C1197.6 71.8178 1194.9 67.754 1192.02 63.7093C1190.36 61.3803 1189.55 59.8278 1192.41 62.7154C1203.56 73.9928 1210.68 91.4239 1210.68 107.333" stroke="#2D3A2C" stroke-width="3" stroke-linecap="round"/>
<path d="M1213.17 104.848C1213.17 95.5527 1213.17 86.2574 1213.17 76.962C1213.17 73.4464 1213.17 69.9307 1213.17 66.415C1213.17 65.5861 1213.01 63.2547 1213.28 65.5315C1214.9 79.0544 1214.66 92.633 1214.66 106.229C1214.66 111.744 1215.14 117.524 1213.67 122.905C1213.33 124.147 1213.03 125.859 1212.17 126.715" stroke="#2D3A2C" stroke-width="3" stroke-linecap="round"/>
<path d="M1211.68 111.309C1211.68 102.874 1216.1 95.7939 1221.62 89.6623C1221.85 89.4062 1222.27 88.8907 1221.76 89.6071C1219.67 92.4911 1217.72 95.465 1215.65 98.3595C1213.8 100.95 1211.94 103.554 1209.91 106.007C1209.25 106.805 1208.7 107.286 1208.7 108.327" stroke="#2D3A2C" stroke-width="3" stroke-linecap="round"/>
<path d="M1084.95 106.835C1084.95 91.3178 1081.44 77.0456 1075.73 62.604C1073.09 55.9349 1070.11 49.5035 1066.23 43.4703C1065.79 42.781 1064.54 40.6628 1064.9 41.3996C1066.39 44.4528 1068.02 47.4496 1069.54 50.4832C1077.92 67.1559 1085.3 84.9536 1089.83 103.108C1090.74 106.727 1091.41 110.083 1091.41 113.793" stroke="#2D3A2C" stroke-width="3" stroke-linecap="round"/>
<path d="M1087.43 105.842C1087.43 92.2944 1087.43 78.7471 1087.43 65.1998C1087.43 56.9858 1087.59 81.6731 1086.61 89.8279C1085.21 101.382 1082.62 112.727 1080.97 124.23" stroke="#2D3A2C" stroke-width="3" stroke-linecap="round"/>
<path d="M1084.95 113.297C1084.95 107.274 1087.1 101.383 1089.72 96.0406C1091.5 92.4359 1093.7 89.1011 1096.05 85.8526C1097.18 84.2893 1100.05 79.6216 1099.91 81.5454C1099.78 83.3583 1097.17 85.9978 1096.27 87.3987C1093.47 91.7378 1090.8 96.1663 1088.01 100.513C1086.43 102.971 1084.94 106.839 1082.96 108.824" stroke="#2D3A2C" stroke-width="3" stroke-linecap="round"/>
<path d="M1082.96 104.849C1081.6 104.712 1080.38 103.373 1079.4 102.585C1074.09 98.3101 1068.66 94.2652 1062.8 90.7675C1057.86 87.8173 1052.67 85.1863 1047.4 82.8711C1046.01 82.2593 1040.79 80.4011 1044.78 83.1472C1055.32 90.4106 1066.18 95.9026 1075.28 105.208C1078.95 108.953 1082.6 113.567 1084.95 118.267" stroke="#2D3A2C" stroke-width="3" stroke-linecap="round"/>
<path d="M1081.47 106.339C1081.38 105.483 1080.9 104.721 1080.53 103.964C1078.79 100.427 1077.15 96.8309 1075.17 93.4173C1072.99 89.6425 1070.46 86.0539 1067.89 82.539C1067.67 82.2489 1065.56 78.8677 1064.9 78.9497C1063.4 79.1373 1066.46 81.5428 1067.28 82.8151C1070.77 88.257 1073.87 93.9427 1077 99.602C1080.55 106.043 1084.08 112.332 1088.43 118.266" stroke="#2D3A2C" stroke-width="3" stroke-linecap="round"/>
<path d="M1151.54 105.345C1146.6 99.9087 1143.18 93.0625 1139.7 86.6531C1139.17 85.6793 1136.6 82.5927 1136.86 81.3243C1136.93 80.9684 1137.53 81.6234 1137.79 81.8765C1139.67 83.7019 1141.4 85.6923 1143.23 87.5642C1150.01 94.4993 1156.09 102.076 1162.86 108.99C1164.23 110.383 1166.59 112.083 1167.45 113.794" stroke="#2D3A2C" stroke-width="3" stroke-linecap="round"/>
<path d="M1149.39 104.975C1149.39 102.471 1149.37 99.9612 1149.67 97.4693C1150.59 89.7361 1154.04 82.1802 1159.2 76.3594C1161.27 74.0265 1163.8 71.774 1166.56 70.2614C1167.68 69.648 1165.16 71.9621 1164.99 72.125C1162.58 74.4323 1160.09 76.7303 1158.23 79.5274C1155.83 83.1413 1154.68 87.3145 1154.27 91.5991C1153.96 94.943 1153.89 98.4296 1154.09 101.787C1154.15 102.811 1154.44 103.66 1154.79 104.603" stroke="#2D3A2C" stroke-width="3" stroke-linecap="round"/>
<path d="M1000.74 102.881C1000.57 92.2359 997.413 80.878 989.216 73.568C986.957 71.5543 984.25 70.0103 981.545 68.6764C979.694 67.7637 980.739 68.6872 981.767 69.4175C989.497 74.9097 996.746 81.854 999.518 91.2075C1000.9 95.8638 1000.74 100.749 1000.74 105.549" stroke="#2D3A2C" stroke-width="3" stroke-linecap="round"/>
<path d="M1000.74 103.215C1000.85 97.0663 1001.98 91.1055 1004.04 85.3157C1004.43 84.2242 1005.16 80.0218 1006.56 79.4235C1007.01 79.2308 1006.74 80.4035 1006.67 80.8873C1006.16 84.2815 1004.72 87.6183 1003.59 90.8373C1001.66 96.363 1000.25 102.027 998.406 107.55" stroke="#2D3A2C" stroke-width="3" stroke-linecap="round"/>
<path d="M999.407 105.882C999.407 102.813 1005.52 100.174 1007.67 99.0266C1010.11 97.7267 1012.71 97.2482 1014.67 95.2838C1015.21 94.747 1015.66 94.0475 1016.23 93.5606C1016.57 93.2682 1011.75 94.2372 1011.38 94.3573C1005.44 96.2814 999.681 98.8557 994.2 101.824C991.82 103.114 989.531 104.194 987.733 106.216" stroke="#2D3A2C" stroke-width="3" stroke-linecap="round"/>
<path d="M993.737 98.5448C988.421 95.645 983.933 91.254 978.988 87.7981C977.022 86.4236 974.905 85.1848 973.115 83.5735C971.936 82.5131 973.098 83.8626 973.467 84.2776C977.156 88.4281 981.448 92.0065 984.992 96.2843C986.816 98.4863 988.046 100.962 989.735 103.214" stroke="#2D3A2C" stroke-width="3" stroke-linecap="round"/>
<path d="M1039.1 104.214C1039.1 101.655 1038.99 99.1107 1038.35 96.6175C1038.24 96.1857 1036.92 92.8575 1038.13 93.9308C1039.64 95.2741 1040.86 97.0395 1041.73 98.8595C1042.36 100.187 1042.36 101.814 1043.43 102.88" stroke="#2D3A2C" stroke-width="3" stroke-linecap="round"/>
<path d="M921.696 104.882C920.081 97.1803 915.564 89.3726 910.097 83.7595C909.452 83.0976 908.379 82.1181 907.651 81.499C907.116 81.0436 905.753 79.5817 905.946 80.2576C906.116 80.8497 906.798 81.1479 907.243 81.5731C908.951 83.2029 910.655 84.83 912.246 86.5759C920.284 95.3946 926.699 106.011 926.699 118.223" stroke="#2D3A2C" stroke-width="3" stroke-linecap="round"/>
<path d="M920.029 103.881C920.029 97.2495 919.945 90.6116 920.103 83.9813C920.265 77.1848 920.44 70.0448 924.161 64.1184C926.85 59.8349 925.652 65.1447 924.958 66.9348C921.382 76.1514 919.695 84.9104 919.695 94.8022C919.695 97.3229 920.812 98.3439 921.363 100.546" stroke="#2D3A2C" stroke-width="3" stroke-linecap="round"/>
<path d="M925.032 102.213C926.039 97.5145 931.02 92.6788 934.148 89.3173C934.541 88.8954 939.429 84.7553 938.632 86.0932C935.308 91.6723 930.806 96.7745 926.848 101.917C925.46 103.72 923.432 105.679 922.697 107.883" stroke="#2D3A2C" stroke-width="3" stroke-linecap="round"/>
<path d="M921.696 101.213C921.696 92.9652 923.777 85.2936 928.033 78.2002" stroke="#2D3A2C" stroke-width="3" stroke-linecap="round"/>
<path d="M784.953 102.548C783.731 99.3245 781.122 96.4353 778.487 94.2839C778.227 94.0721 774.182 91.1121 775.763 91.6899C779.822 93.1728 782.949 99.8587 783.619 103.882" stroke="#2D3A2C" stroke-width="3" stroke-linecap="round"/>
<path d="M783.619 75.8652V106.549" stroke="#2D3A2C" stroke-width="3" stroke-linecap="round"/>
<path d="M783.619 106.55C783.619 102.853 785.076 99.6477 787.177 96.6558C790.607 91.7705 794.577 87.3009 799.406 83.7597C800.068 83.2739 799.408 83.857 799.22 84.0191C797.959 85.1088 796.97 86.4921 795.793 87.6693C794.451 89.0114 792.945 90.1763 791.624 91.5419C789.753 93.4759 788.565 95.8709 787.288 98.2123" stroke="#2D3A2C" stroke-width="3" stroke-linecap="round"/>
<path d="M851.324 109.218C851.324 99.2257 848.201 90.1483 842.245 82.0177C838.731 77.2217 826.55 64.1797 830.794 68.3434C836.185 73.6334 841.79 79.1917 845.913 85.5382C847.957 88.6835 850.657 92.9366 850.657 96.8779" stroke="#2D3A2C" stroke-width="3" stroke-linecap="round"/>
<path d="M849.656 101.547C846.116 97.8199 842.084 91.541 836.315 91.541" stroke="#2D3A2C" stroke-width="3" stroke-linecap="round"/>
<path d="M851.323 102.213C851.323 94.974 852.534 88.6333 856.03 82.1465C860.537 73.7815 866.64 66.1108 872.706 58.8186C873.44 57.9362 875.193 55.6717 874.114 58.2628C872.126 63.033 869.112 67.4426 866.999 72.1965C863.468 80.1416 860.995 89.4238 860.995 98.1926C860.995 99.8939 861.329 101.539 861.329 103.214" stroke="#2D3A2C" stroke-width="3" stroke-linecap="round"/>
<path d="M862.997 105.549C862.997 100.941 864.065 96.7131 867.333 93.264C868.644 91.8797 871.257 91.0551 872.336 89.7065C872.641 89.3254 872.438 90.7025 872.299 91.1703C871.382 94.2482 870.83 97.3905 870.26 100.546C869.849 102.823 870.007 105.248 869.501 107.476C869.387 107.976 869.42 108.34 869 108.55" stroke="#2D3A2C" stroke-width="3" stroke-linecap="round"/>
<path d="M869.667 104.215C869.667 104.64 870.014 103.887 870.13 103.752C872.556 100.921 875.225 98.2716 877.894 95.6731C879.65 93.9631 881.928 91.0118 884.342 90.207" stroke="#2D3A2C" stroke-width="3" stroke-linecap="round"/>
<path d="M1339.01 60.6535C1337.18 60.6535 1333.68 61.4916 1332.78 59.4398C1332.23 58.1796 1332.2 56.6599 1332.27 55.3082C1332.31 54.3671 1333.39 54.1424 1334.13 53.9137C1335.04 53.632 1335.97 53.6813 1336.91 53.6813C1337.21 53.6813 1337.95 54.2554 1337.74 54.0428C1336.07 52.3687 1337.01 49.3637 1338.54 48.1036C1339.29 47.4868 1343.44 44.7439 1343.83 47.0448C1344.02 48.1156 1343.74 48.9162 1343.29 49.8595C1342.97 50.5459 1343.7 50.4893 1344.17 50.7633C1346.26 51.9819 1347.84 54.2703 1346.99 56.7542C1345.86 59.997 1342.49 60.8859 1339.47 60.8859" stroke="#40431B" stroke-width="3" stroke-linecap="round"/>
<path d="M1381.54 89.9376C1380.05 89.6399 1379.2 86.7636 1379.03 85.5219C1378.94 84.848 1378.77 83.5836 1379.13 82.9654C1379.88 81.7017 1382.01 80.7078 1383.34 80.2282C1384.26 79.8975 1385.93 80.3517 1386.52 79.6601C1387.46 78.5614 1389.63 76.2614 1390.94 78.1237C1392.06 79.734 1392.28 83.1688 1391.63 85.0184C1391.21 86.227 1392.13 85.7421 1392.9 86.8131C1393.98 88.3108 1393.51 90.2549 1391.65 90.7381C1389.67 91.2517 1388.17 90.2256 1386.42 89.4728" stroke="#40431B" stroke-width="3" stroke-linecap="round"/>
<path d="M1225.56 67.6548C1225.56 65.4587 1225.56 63.2625 1225.56 61.0664C1225.56 59.6372 1225.59 58.5916 1227.38 59.3565C1228.28 59.743 1228.37 61.864 1228.82 61.9919C1229.87 62.2913 1231.48 61.7252 1232.59 61.7252C1233.97 61.7252 1233.5 64.4601 1233.47 65.3959C1233.44 66.0744 1232.74 66.4648 1232.74 67.0274C1232.74 67.7527 1233.96 69.0422 1234.31 69.6314C1235.34 71.3574 1237.02 73.7615 1234.41 74.7139C1230.94 75.9761 1227.54 75.9428 1224.71 73.5845" stroke="#40431B" stroke-width="3" stroke-linecap="round"/>
<path d="M1100.19 62.8546C1098.3 62.8546 1095.75 61.6606 1095.39 59.6074C1095 57.3762 1097.01 57.236 1098.87 56.9877C1100.33 56.7928 1100.26 58.004 1100.49 59.0113C1100.54 59.2625 1100.85 58.6343 1100.96 58.3995C1101.8 56.535 1103.36 55.006 1105.21 54.1641C1107.77 53.0006 1110.75 53.6532 1110.9 56.8151C1110.96 58.0203 1110.91 59.2624 1110.5 60.4074C1110.33 60.8628 1109.89 61.3026 1110.2 61.7879C1111.87 64.3867 1113.52 67.8422 1110.81 70.447C1108.01 73.1401 1102.28 74.3012 1099.06 71.8902" stroke="#40431B" stroke-width="3" stroke-linecap="round"/>
<path d="M958.161 89.1143C957.154 86.7218 957.501 81.3795 959.997 79.9689C961.51 79.1134 962.114 81.0781 962.114 82.3376" stroke="#40431B" stroke-width="3" stroke-linecap="round"/>
<path d="M962.679 82.9018C962.709 83.1442 966.616 81.4197 967.197 81.2704C968.722 80.8783 971.08 79.9768 972.123 81.6155C972.731 82.5719 971.611 83.4808 970.883 83.8901C969.654 84.5814 969.738 85.0294 969.738 86.3529C969.738 88.8586 969 91.4042 966.13 91.8747C964.914 92.074 963.809 90.868 963.809 92.2512C963.809 95.3154 961.881 96.4066 958.899 96.1415C956.397 95.9191 955.902 93.1597 955.902 91.0904" stroke="#40431B" stroke-width="3" stroke-linecap="round"/>
<path d="M861.876 63.4192C860.171 62.3776 858.231 57.5286 859.507 55.6856C860.322 54.5082 863.353 55.1132 863.789 56.4229C863.985 57.0107 863.652 57.2458 864.04 56.6111C865.004 55.0349 867.514 54.1308 869.201 53.7091C871.653 53.0961 873.024 52.8904 873.17 55.513C873.195 55.9622 874.117 55.8412 874.441 55.968C875.318 56.3113 876.245 57.2387 876.245 58.2269C876.245 60.2102 874.243 61.7067 872.888 62.8545C870.669 64.7329 868.2 66.0659 865.389 66.8076C863.407 67.3307 864.961 66.5456 866.236 67.639C867.645 68.8462 862.216 67.1031 861.028 65.6781" stroke="#40431B" stroke-width="3" stroke-linecap="round"/>
<path d="M750.624 83.4676C747.926 83.2815 746.389 81.5084 746.389 78.9498C746.389 77.0645 746.337 73.9454 749.087 74.1653C749.928 74.2326 750.79 74.5754 751.299 75.2791C751.399 75.4174 751.758 76.4946 751.973 76.3458C752.831 75.7517 753.903 75.3105 754.969 75.3105C756.628 75.3105 756.271 76.9832 756.271 78.1027" stroke="#40431B" stroke-width="3" stroke-linecap="round"/>
<path d="M750.342 85.1606C752.034 85.1606 753.855 85.8075 755.566 85.4273C756.122 85.3036 756.747 84.0877 756.946 83.6233C757.369 82.6352 756.942 82.7497 758.028 83.1841C759.884 83.9264 761.886 84.3447 762.891 82.4782C763.727 80.9264 762.466 79.0282 761.354 78.1016" stroke="#40431B" stroke-width="3" stroke-linecap="round"/>
<path d="M587.701 86.2903C587.701 84.8176 587.094 82.1353 588.485 81.2078C589.496 80.5339 591.904 80.8079 593.003 80.9882C594.837 81.2888 595.512 83.5472 595.607 85.1609C595.651 85.911 601.706 84.9983 602.619 85.3177C604.011 85.8048 603.186 90.133 602.227 90.9179C601.87 91.2102 599.4 91.4403 599.435 91.5454C600.431 94.5337 594.254 94.1667 592.439 94.3063C587.877 94.6572 587.983 90.4067 587.983 86.855" stroke="#40431B" stroke-width="3" stroke-linecap="round"/>
<path d="M382.705 72.4554C383.398 72.3687 382.966 69.1926 382.673 68.8161C381.938 67.8702 379.347 67.305 378.752 68.6435C378.301 69.658 375.001 68.1045 373.952 68.2827C371.771 68.6529 371.39 71.285 372.257 73.0201" stroke="#40431B" stroke-width="3" stroke-linecap="round"/>
<path d="M371.694 73.0195C370.124 73.1939 368.026 75.7042 367.066 76.8314C366.203 77.8439 365.755 79.8978 366.109 81.2081C367.1 84.8733 371.042 81.0318 371.96 79.6551C372.56 78.7548 374.463 79.3268 375.427 79.1688C376.565 78.9822 377.475 78.3191 378.345 77.6001C378.598 77.3904 379.176 76.5088 379.474 76.4236C380.696 76.0744 382.45 76.4079 383.71 76.4079C385.295 76.4079 384.965 75.4982 384.965 74.149" stroke="#40431B" stroke-width="3" stroke-linecap="round"/>
<path d="M214.982 56.3605C212.788 56.3605 211.203 55.7714 210.354 53.5525C209.826 52.1706 209.279 50.4308 211.186 50.4308C212.726 50.4308 213.057 51.0029 214.072 51.9054C214.365 52.1658 215.246 50.7626 215.452 50.5563C216.678 49.3306 218.291 48.1441 220.002 47.7327C221.478 47.3775 222.888 47.5333 222.888 49.2857C222.888 51.2348 223.738 50.7458 225.429 51.5917C226.732 52.243 229.44 53.4177 227.563 55.0114C224.725 57.4207 221.73 58.337 218.088 58.337" stroke="#40431B" stroke-width="3" stroke-linecap="round"/>
<path d="M70.1295 70.196C68.9206 70.196 59.5784 69.2132 62.6312 66.2429C64.5035 64.4212 71.8237 63.2866 71.8237 67.09" stroke="#40431B" stroke-width="3" stroke-linecap="round"/>
<path d="M73.5176 67.0902C76.7823 66.9348 81.8542 63.9575 83.6827 67.9373C84.7702 70.3043 82.9614 70.6577 81.2983 71.6081C80.8597 71.8587 81.5211 72.7427 81.3924 73.1611C80.9366 74.6425 77.5967 74.965 76.3726 74.965C74.1797 74.965 73.7138 72.0865 72.3882 70.761" stroke="#40431B" stroke-width="3" stroke-linecap="round"/>
</svg>
